<?xml version="1.0" encoding="UTF-8"?><svg xmlns="http://www.w3.org/2000/svg" xmlns:xlink="http://www.w3.org/1999/xlink" width="375pt" zoomAndPan="magnify" viewBox="0 0 375 374.999991" height="374.999991pt" preserveAspectRatio="xMidYMid meet" version="1.2"><defs><g/><clipPath xml:id="clip1" id="clip1"><path d="M 114.929688 85.800781 L 185 85.800781 L 185 156 L 114.929688 156 Z M 114.929688 85.800781 "/></clipPath><clipPath xml:id="clip2" id="clip2"><path d="M 181.5 196 L 234.757812 196 L 234.757812 222.222656 L 181.5 222.222656 Z M 181.5 196 "/></clipPath><clipPath xml:id="clip3" id="clip3"><path d="M 228.101562 90 L 249.167969 90 L 249.167969 111 L 228.101562 111 Z M 228.101562 90 "/></clipPath><clipPath xml:id="clip4" id="clip4"><path d="M 120 199 L 143.777344 199 L 143.777344 222.222656 L 120 222.222656 Z M 120 199 "/></clipPath><clipPath xml:id="clip5" id="clip5"><path d="M 162.164062 134.25 L 201.554688 134.25 L 201.554688 173.902344 L 162.164062 173.902344 Z M 162.164062 134.25 "/></clipPath><clipPath xml:id="clip6" id="clip6"><path d="M 174 156.28125 L 201.398438 156.28125 L 201.398438 173.902344 L 174 173.902344 Z M 174 156.28125 "/></clipPath><clipPath xml:id="clip7" id="clip7"><path d="M 162 134.15625 L 186 134.15625 L 186 150 L 162 150 Z M 162 134.15625 "/></clipPath><clipPath xml:id="clip8" id="clip8"><path d="M 175.867188 164.621094 L 192.992188 164.621094 L 192.992188 173.902344 L 175.867188 173.902344 Z M 175.867188 164.621094 "/></clipPath><clipPath xml:id="clip9" id="clip9"><path d="M 151.421875 137.710938 L 212.148438 137.710938 L 212.148438 170.445312 L 151.421875 170.445312 Z M 151.421875 137.710938 "/></clipPath></defs><g xml:id="surface1" id="surface1"><path style=" stroke:none;fill-rule:evenodd;fill:rgb(39.99939%,39.99939%,39.99939%);fill-opacity:1;" d="M 183.101562 191.109375 C 162.660156 191.109375 146.035156 174.480469 146.035156 154.042969 C 146.035156 145.535156 148.835938 137.546875 154.128906 130.917969 C 159.269531 124.488281 166.480469 119.898438 174.441406 117.992188 C 175.222656 117.804688 176.007812 118.28125 176.191406 119.066406 C 176.382812 119.847656 175.902344 120.632812 175.117188 120.816406 C 159.703125 124.507812 148.929688 138.167969 148.929688 154.042969 C 148.929688 172.886719 164.253906 188.210938 183.09375 188.210938 C 201.925781 188.210938 217.253906 172.886719 217.253906 154.042969 C 217.253906 138.167969 206.488281 124.507812 191.0625 120.816406 C 190.285156 120.632812 189.800781 119.847656 189.988281 119.066406 C 190.179688 118.289062 190.953125 117.804688 191.738281 117.992188 C 199.703125 119.894531 206.917969 124.488281 212.050781 130.917969 C 217.34375 137.546875 220.148438 145.535156 220.148438 154.042969 C 220.160156 174.480469 203.535156 191.109375 183.101562 191.109375 "/><path style=" stroke:none;fill-rule:evenodd;fill:rgb(39.99939%,39.99939%,39.99939%);fill-opacity:1;" d="M 183.101562 212.066406 C 172.785156 212.066406 162.660156 209.320312 153.8125 204.140625 C 145.226562 199.113281 138.03125 191.90625 133 183.316406 C 132.601562 182.625 132.832031 181.738281 133.523438 181.335938 C 134.214844 180.9375 135.101562 181.164062 135.5 181.855469 C 145.359375 198.699219 163.601562 209.167969 183.085938 209.167969 C 213.476562 209.167969 238.207031 184.441406 238.207031 154.042969 C 238.207031 123.636719 213.488281 98.910156 183.085938 98.910156 C 152.695312 98.910156 127.972656 123.636719 127.972656 154.042969 C 127.972656 158.316406 128.464844 162.585938 129.441406 166.730469 C 129.628906 167.503906 129.140625 168.289062 128.363281 168.46875 C 127.585938 168.660156 126.800781 168.167969 126.625 167.394531 C 125.597656 163.039062 125.078125 158.550781 125.078125 154.042969 C 125.078125 122.050781 151.101562 96.011719 183.085938 96.011719 C 215.074219 96.011719 241.101562 122.050781 241.101562 154.042969 C 241.101562 186.035156 215.082031 212.066406 183.101562 212.066406 "/><g clip-rule="nonzero" clip-path="url(#clip1)"><path style=" stroke:none;fill-rule:evenodd;fill:rgb(39.99939%,39.99939%,39.99939%);fill-opacity:1;" d="M 116.382812 155.488281 C 115.582031 155.488281 114.929688 154.84375 114.929688 154.042969 C 114.929688 135.824219 122.027344 118.710938 134.898438 105.824219 C 147.769531 92.949219 164.894531 85.855469 183.101562 85.855469 C 183.902344 85.855469 184.546875 86.507812 184.546875 87.308594 C 184.546875 88.109375 183.902344 88.761719 183.101562 88.761719 C 147.109375 88.761719 117.832031 118.042969 117.832031 154.042969 C 117.832031 154.84375 117.183594 155.488281 116.382812 155.488281 "/></g><g clip-rule="nonzero" clip-path="url(#clip2)"><path style=" stroke:none;fill-rule:evenodd;fill:rgb(39.99939%,39.99939%,39.99939%);fill-opacity:1;" d="M 183.101562 222.222656 C 182.300781 222.222656 181.648438 221.578125 181.648438 220.769531 C 181.648438 219.96875 182.300781 219.324219 183.101562 219.324219 C 201.863281 219.324219 219.726562 211.234375 232.132812 197.132812 C 232.65625 196.53125 233.570312 196.472656 234.175781 197 C 234.773438 197.53125 234.835938 198.445312 234.308594 199.050781 C 221.355469 213.769531 202.691406 222.222656 183.101562 222.222656 "/></g><g clip-rule="nonzero" clip-path="url(#clip3)"><path style=" stroke:none;fill-rule:evenodd;fill:rgb(39.99939%,39.99939%,39.99939%);fill-opacity:1;" d="M 239.019531 110.523438 C 233.417969 110.523438 228.867188 105.960938 228.867188 100.371094 C 228.867188 94.777344 233.425781 90.222656 239.019531 90.222656 C 244.609375 90.222656 249.167969 94.777344 249.167969 100.371094 C 249.167969 105.960938 244.617188 110.523438 239.019531 110.523438 Z M 239.019531 93.113281 C 235.023438 93.113281 231.761719 96.363281 231.761719 100.371094 C 231.761719 104.367188 235.011719 107.625 239.019531 107.625 C 243.023438 107.625 246.273438 104.375 246.273438 100.371094 C 246.265625 96.363281 243.015625 93.113281 239.019531 93.113281 "/></g><g clip-rule="nonzero" clip-path="url(#clip4)"><path style=" stroke:none;fill-rule:evenodd;fill:rgb(39.99939%,39.99939%,39.99939%);fill-opacity:1;" d="M 131.695312 222.222656 C 125.292969 222.222656 120.09375 217.015625 120.09375 210.621094 C 120.09375 204.222656 125.300781 199.015625 131.695312 199.015625 C 138.097656 199.015625 143.296875 204.222656 143.296875 210.621094 C 143.296875 217.015625 138.085938 222.222656 131.695312 222.222656 Z M 131.695312 201.914062 C 126.898438 201.914062 122.996094 205.8125 122.996094 210.613281 C 122.996094 215.40625 126.898438 219.308594 131.695312 219.308594 C 136.492188 219.308594 140.394531 215.40625 140.394531 210.613281 C 140.394531 205.8125 136.492188 201.914062 131.695312 201.914062 "/></g><path style=" stroke:none;fill-rule:evenodd;fill:rgb(100%,70.199585%,0%);fill-opacity:1;" d="M 183.101562 128.246094 C 177.679688 128.246094 173.265625 123.832031 173.265625 118.410156 C 173.265625 112.988281 177.679688 108.574219 183.101562 108.574219 C 188.519531 108.574219 192.929688 112.988281 192.929688 118.410156 C 192.929688 123.832031 188.519531 128.246094 183.101562 128.246094 "/><path style=" stroke:none;fill-rule:evenodd;fill:rgb(100%,70.199585%,0%);fill-opacity:1;" d="M 130.71875 184.828125 C 125.300781 184.828125 120.890625 180.414062 120.890625 174.992188 C 120.890625 169.570312 125.300781 165.15625 130.71875 165.15625 C 136.140625 165.15625 140.554688 169.570312 140.554688 174.992188 C 140.554688 180.414062 136.140625 184.828125 130.71875 184.828125 "/><g clip-rule="nonzero" clip-path="url(#clip5)"><path style=" stroke:none;fill-rule:nonzero;fill:rgb(94.898987%,72.938538%,46.669006%);fill-opacity:1;" d="M 201.300781 152.101562 C 202.378906 162.992188 194.519531 172.710938 183.738281 173.800781 C 172.960938 174.890625 163.347656 166.945312 162.269531 156.050781 C 161.191406 145.15625 169.050781 135.441406 179.832031 134.351562 C 190.609375 133.257812 200.222656 141.207031 201.300781 152.101562 "/></g><path style=" stroke:none;fill-rule:nonzero;fill:rgb(93.328857%,67.83905%,37.649536%);fill-opacity:1;" d="M 174.355469 153.007812 C 174.355469 153.007812 185.75 152.269531 196.34375 140.789062 C 194.808594 139.078125 192.992188 137.644531 190.96875 136.558594 C 188.738281 141.214844 184.039062 147.070312 174.355469 153.007812 "/><g clip-rule="nonzero" clip-path="url(#clip6)"><path style=" stroke:none;fill-rule:nonzero;fill:rgb(90.19928%,67.059326%,38.038635%);fill-opacity:1;" d="M 201.261719 156.433594 C 191.820312 165.34375 181.027344 170.007812 174.042969 172.292969 C 174.644531 172.554688 175.261719 172.785156 175.890625 172.988281 C 180.203125 171.96875 187.554688 169.613281 192.925781 164.621094 C 192.925781 164.621094 190.636719 170.117188 182.207031 173.894531 C 182.714844 173.882812 183.226562 173.851562 183.738281 173.800781 C 185.226562 173.652344 186.65625 173.335938 188.019531 172.875 C 189.769531 171.847656 191.472656 170.632812 193.015625 169.199219 C 193.015625 169.199219 192.703125 169.941406 191.898438 171.066406 C 197.011719 167.953125 200.539062 162.570312 201.261719 156.433594 "/></g><g clip-rule="nonzero" clip-path="url(#clip7)"><path style=" stroke:none;fill-rule:nonzero;fill:rgb(98.81897%,87.838745%,74.119568%);fill-opacity:1;" d="M 179.832031 134.351562 C 171.285156 135.214844 164.574219 141.503906 162.695312 149.5 C 169.433594 145.824219 178.464844 140.445312 185.488281 134.605469 C 183.667969 134.25 181.769531 134.152344 179.832031 134.351562 "/></g><path style=" stroke:none;fill-rule:nonzero;fill:rgb(93.328857%,67.83905%,37.649536%);fill-opacity:1;" d="M 186.964844 152.890625 C 182.148438 157.734375 172.234375 161.734375 164.917969 164.199219 C 165.347656 164.929688 165.820312 165.625 166.332031 166.289062 C 181.644531 160.472656 186.964844 152.890625 186.964844 152.890625 "/><path style=" stroke:none;fill-rule:nonzero;fill:rgb(98.039246%,74.899292%,45.878601%);fill-opacity:1;" d="M 200.25 147.375 C 194.867188 153.621094 183.554688 164.617188 168.113281 168.289062 C 169.257812 169.410156 170.535156 170.390625 171.914062 171.207031 C 172.597656 171.609375 173.308594 171.972656 174.042969 172.292969 C 181.027344 170.007812 191.820312 165.34375 201.261719 156.433594 C 201.347656 155.695312 201.394531 154.949219 201.398438 154.195312 C 201.402344 153.503906 201.371094 152.804688 201.300781 152.101562 C 201.136719 150.449219 200.777344 148.867188 200.25 147.375 "/><g clip-rule="nonzero" clip-path="url(#clip8)"><path style=" stroke:none;fill-rule:nonzero;fill:rgb(98.039246%,74.899292%,45.878601%);fill-opacity:1;" d="M 192.925781 164.621094 C 187.554688 169.613281 180.203125 171.96875 175.890625 172.988281 C 177.890625 173.625 180.015625 173.945312 182.207031 173.894531 C 190.636719 170.117188 192.925781 164.621094 192.925781 164.621094 "/></g><path style=" stroke:none;fill-rule:nonzero;fill:rgb(94.898987%,72.938538%,46.669006%);fill-opacity:1;" d="M 188.019531 172.875 C 189.390625 172.414062 190.6875 171.804688 191.898438 171.066406 C 192.703125 169.941406 193.015625 169.199219 193.015625 169.199219 C 191.472656 170.632812 189.769531 171.847656 188.019531 172.875 "/><path style=" stroke:none;fill-rule:nonzero;fill:rgb(93.328857%,67.83905%,37.649536%);fill-opacity:1;" d="M 192.933594 146.804688 C 192.933594 146.804688 195.84375 145.929688 198.554688 143.785156 C 198.25 143.277344 197.921875 142.785156 197.574219 142.3125 C 196.257812 143.851562 194.671875 145.480469 192.933594 146.804688 "/><g clip-rule="nonzero" clip-path="url(#clip9)"><path style=" stroke:none;fill-rule:nonzero;fill:rgb(74.508667%,48.239136%,22.349548%);fill-opacity:1;" d="M 212.019531 138.832031 C 211.054688 136.886719 204.933594 137.828125 196.40625 140.859375 C 196.894531 141.410156 197.351562 141.992188 197.777344 142.597656 C 201.480469 141.652344 203.96875 141.589844 204.480469 142.632812 C 204.996094 143.675781 203.453125 145.644531 200.480469 148.066406 C 196.769531 151.085938 190.835938 154.808594 183.878906 158.316406 C 176.921875 161.824219 170.410156 164.375 165.792969 165.554688 C 162.089844 166.5 159.601562 166.558594 159.089844 165.519531 C 158.574219 164.476562 160.117188 162.507812 163.089844 160.085938 C 162.871094 159.382812 162.6875 158.664062 162.546875 157.929688 C 155.019531 162.992188 150.589844 167.367188 151.550781 169.316406 C 152.515625 171.265625 158.636719 170.324219 167.164062 167.292969 C 172.296875 165.46875 178.300781 162.886719 184.574219 159.722656 C 190.847656 156.5625 196.496094 153.269531 201.023438 150.222656 C 208.550781 145.160156 212.980469 140.78125 212.019531 138.832031 "/></g><g style="fill:rgb(0%,0%,0%);fill-opacity:1;"><g transform="translate(146.681137, 253.002036)"><path style="stroke:none;" d="M 7.058594 -13.789062 C 7.917969 -13.789062 9.992188 -13.574219 9.992188 -10.90625 L 9.992188 -10.046875 C 9.992188 -7.378906 7.917969 -7.109375 7.058594 -7.109375 L 5.144531 -7.109375 L 5.144531 -13.789062 Z M 2.15625 -16.96875 C 1.9375 -16.96875 1.667969 -16.808594 1.667969 -16.484375 L 1.667969 -0.484375 C 1.667969 -0.160156 1.9375 0 2.15625 0 L 4.660156 0 C 4.875 0 5.144531 -0.160156 5.144531 -0.484375 L 5.144531 -3.933594 L 7.058594 -3.933594 C 13.386719 -3.933594 13.46875 -9.347656 13.46875 -9.347656 L 13.46875 -11.582031 C 13.46875 -11.582031 13.386719 -16.96875 7.058594 -16.96875 Z M 2.15625 -16.96875 "/></g></g><g style="fill:rgb(0%,0%,0%);fill-opacity:1;"><g transform="translate(160.604195, 253.002036)"><path style="stroke:none;" d="M 5.144531 -16.484375 C 5.144531 -16.808594 4.875 -16.96875 4.660156 -16.96875 L 2.15625 -16.96875 C 1.9375 -16.96875 1.667969 -16.808594 1.667969 -16.484375 L 1.667969 -0.484375 C 1.667969 -0.160156 1.9375 0 2.15625 0 L 4.660156 0 C 4.875 0 5.144531 -0.160156 5.144531 -0.484375 Z M 5.144531 -16.484375 "/></g></g><g style="fill:rgb(0%,0%,0%);fill-opacity:1;"><g transform="translate(166.744229, 253.002036)"><path style="stroke:none;" d="M 8.1875 -3.3125 C 8.1875 -2.855469 7.300781 -2.667969 6.4375 -2.667969 C 5.277344 -2.667969 4.742188 -2.960938 4.742188 -4.066406 C 4.742188 -5.171875 6.03125 -5.359375 7.058594 -5.359375 L 8.1875 -5.359375 Z M 2.800781 -9.964844 C 3.851562 -10.207031 4.714844 -10.316406 5.546875 -10.316406 C 7.191406 -10.316406 7.972656 -9.804688 7.972656 -8.269531 L 7.972656 -8.105469 L 5.898438 -8.105469 C 3.367188 -8.105469 1.265625 -7.324219 1.265625 -3.796875 C 1.265625 -0.351562 3.796875 0.214844 6.492188 0.214844 C 7.917969 0.214844 11.664062 -0.296875 11.664062 -0.941406 L 11.664062 -8.105469 C 11.664062 -11.609375 9.589844 -13.359375 6.25 -13.359375 C 4.875 -13.359375 3.554688 -13.25 2.289062 -12.847656 C 2.128906 -12.765625 2.019531 -12.632812 2.019531 -12.445312 L 2.425781 -10.207031 C 2.503906 -10.019531 2.667969 -9.964844 2.800781 -9.964844 Z M 2.800781 -9.964844 "/></g></g><g style="fill:rgb(0%,0%,0%);fill-opacity:1;"><g transform="translate(179.266886, 253.002036)"><path style="stroke:none;" d="M 9.425781 -0.484375 C 9.425781 -0.160156 9.695312 0 9.910156 0 L 12.417969 0 C 12.632812 0 12.902344 -0.160156 12.902344 -0.484375 L 12.902344 -6.519531 C 12.902344 -12.066406 10.640625 -13.359375 7.351562 -13.359375 C 5.765625 -13.359375 1.667969 -12.6875 1.667969 -12.066406 L 1.667969 -0.484375 C 1.667969 -0.160156 1.9375 0 2.15625 0 L 4.660156 0 C 4.875 0 5.144531 -0.160156 5.144531 -0.484375 L 5.144531 -9.992188 C 5.144531 -9.992188 6.195312 -10.316406 7.003906 -10.316406 C 8.132812 -10.316406 9.425781 -9.910156 9.425781 -8.242188 Z M 9.425781 -0.484375 "/></g></g><g style="fill:rgb(0%,0%,0%);fill-opacity:1;"><g transform="translate(192.893697, 253.002036)"><path style="stroke:none;" d="M 4.875 -8.054688 C 4.875 -10.316406 6.492188 -10.316406 6.976562 -10.316406 C 7.40625 -10.316406 9.023438 -10.316406 9.023438 -8.054688 Z M 12.496094 -7.917969 C 12.496094 -9.398438 12.039062 -13.359375 6.867188 -13.359375 C 1.75 -13.359375 1.402344 -9.398438 1.402344 -7.917969 L 1.402344 -5.898438 C 1.402344 -1.425781 4.011719 0.214844 7.460938 0.214844 C 8.886719 0.214844 10.261719 0.214844 11.367188 -0.109375 C 11.554688 -0.160156 11.609375 -0.378906 11.609375 -0.457031 L 11.257812 -2.773438 C 11.175781 -2.960938 11.015625 -3.015625 10.882812 -3.015625 C 10.101562 -2.910156 9.265625 -2.828125 8.402344 -2.828125 C 6.570312 -2.828125 4.902344 -2.882812 4.902344 -5.144531 L 12.011719 -5.144531 C 12.226562 -5.144531 12.496094 -5.304688 12.496094 -5.628906 Z M 12.496094 -7.917969 "/></g></g><g style="fill:rgb(0%,0%,0%);fill-opacity:1;"><g transform="translate(206.116553, 253.002036)"><path style="stroke:none;" d="M 8.511719 0.0820312 C 8.835938 0.0273438 8.996094 -0.214844 8.996094 -0.429688 L 8.996094 -2.398438 C 8.996094 -2.613281 8.835938 -2.882812 8.511719 -2.882812 C 8.429688 -2.882812 7.890625 -2.828125 7.785156 -2.828125 C 6.4375 -2.828125 6.140625 -3.769531 6.140625 -4.550781 L 6.140625 -10.101562 L 8.242188 -10.101562 C 8.566406 -10.101562 8.726562 -10.371094 8.726562 -10.585938 L 8.726562 -12.660156 C 8.726562 -12.875 8.566406 -13.144531 8.242188 -13.144531 L 6.140625 -13.144531 L 6.140625 -16.484375 C 6.140625 -16.808594 5.871094 -16.96875 5.65625 -16.96875 L 3.554688 -16.96875 C 3.339844 -16.96875 3.125 -16.78125 3.042969 -16.457031 L 2.667969 -14.757812 L 2.667969 -13.144531 L 1.347656 -13.144531 C 1.023438 -13.144531 0.863281 -12.875 0.863281 -12.660156 L 0.863281 -10.585938 C 0.863281 -10.371094 1.023438 -10.101562 1.347656 -10.101562 L 2.667969 -10.101562 L 2.667969 -4.496094 C 2.667969 -0.890625 4.605469 0.214844 6.949219 0.214844 C 7.542969 0.214844 8.082031 0.132812 8.511719 0.0820312 Z M 8.511719 0.0820312 "/></g></g><g style="fill:rgb(0%,0%,0%);fill-opacity:1;"><g transform="translate(215.703736, 253.002036)"><path style="stroke:none;" d="M 9.210938 -10.207031 C 9.320312 -10.179688 9.453125 -10.128906 9.535156 -10.128906 C 9.722656 -10.128906 9.804688 -10.234375 9.882812 -10.371094 L 10.503906 -12.148438 C 10.53125 -12.226562 10.585938 -12.363281 10.585938 -12.46875 C 10.585938 -12.605469 10.53125 -12.738281 10.34375 -12.820312 C 9.320312 -13.171875 7.863281 -13.359375 6.300781 -13.359375 C 3.984375 -13.359375 1.292969 -12.390625 1.292969 -9.398438 C 1.292969 -4.660156 8.269531 -5.871094 8.269531 -3.691406 C 8.269531 -2.882812 7.648438 -2.667969 6.085938 -2.667969 C 4.984375 -2.667969 3.449219 -3.207031 2.503906 -3.527344 C 2.425781 -3.554688 2.316406 -3.582031 2.234375 -3.582031 C 2.046875 -3.582031 1.914062 -3.5 1.832031 -3.367188 L 1.210938 -1.832031 C 1.183594 -1.75 1.132812 -1.667969 1.132812 -1.5625 C 1.132812 -1.425781 1.210938 -1.292969 1.375 -1.15625 C 2.234375 -0.566406 3.878906 0.214844 6.300781 0.214844 C 10.585938 0.214844 11.742188 -1.777344 11.742188 -3.71875 C 11.742188 -8.539062 4.792969 -7.351562 4.792969 -9.398438 C 4.792969 -9.667969 4.957031 -10.476562 6.761719 -10.476562 C 7.542969 -10.476562 8.59375 -10.371094 9.210938 -10.207031 Z M 9.210938 -10.207031 "/></g></g><g style="fill:rgb(0%,0%,0%);fill-opacity:1;"><g transform="translate(152.280075, 272.432148)"><path style="stroke:none;" d="M 4.253906 -1.355469 C 4.363281 -1.355469 4.421875 -1.445312 4.441406 -1.488281 L 5.964844 -4.554688 L 5.964844 -0.199219 C 5.964844 -0.0664062 6.074219 0 6.164062 0 L 6.839844 0 C 6.929688 0 7.042969 -0.0664062 7.042969 -0.199219 L 7.042969 -6.796875 C 7.042969 -6.929688 6.929688 -6.996094 6.839844 -6.996094 L 6.21875 -6.996094 C 6.128906 -6.996094 5.996094 -6.917969 5.941406 -6.796875 L 3.910156 -2.742188 L 1.875 -6.796875 C 1.820312 -6.917969 1.6875 -6.996094 1.597656 -6.996094 L 0.976562 -6.996094 C 0.886719 -6.996094 0.777344 -6.929688 0.777344 -6.796875 L 0.777344 -0.199219 C 0.777344 -0.0664062 0.886719 0 0.976562 0 L 1.65625 0 C 1.742188 0 1.855469 -0.0664062 1.855469 -0.199219 L 1.855469 -4.554688 L 3.375 -1.488281 C 3.398438 -1.445312 3.453125 -1.355469 3.566406 -1.355469 Z M 4.253906 -1.355469 "/></g></g><g style="fill:rgb(0%,0%,0%);fill-opacity:1;"><g transform="translate(161.426803, 272.432148)"><path style="stroke:none;" d="M 3.375 0.0664062 C 5.476562 0.0664062 5.976562 -1.253906 5.976562 -2.398438 L 5.976562 -6.796875 C 5.976562 -6.929688 5.863281 -6.996094 5.773438 -6.996094 L 5.097656 -6.996094 C 5.007812 -6.996094 4.898438 -6.929688 4.898438 -6.796875 L 4.898438 -2.488281 C 4.898438 -1.097656 3.820312 -0.964844 3.375 -0.964844 C 2.933594 -0.964844 1.855469 -1.097656 1.855469 -2.488281 L 1.855469 -6.796875 C 1.855469 -6.929688 1.742188 -6.996094 1.65625 -6.996094 L 0.976562 -6.996094 C 0.886719 -6.996094 0.777344 -6.929688 0.777344 -6.796875 L 0.777344 -2.398438 C 0.777344 -1.253906 1.277344 0.0664062 3.375 0.0664062 Z M 3.375 0.0664062 "/></g></g><g style="fill:rgb(0%,0%,0%);fill-opacity:1;"><g transform="translate(169.508, 272.432148)"><path style="stroke:none;" d="M 0.777344 -0.199219 C 0.777344 -0.109375 0.84375 0 0.976562 0 L 4.730469 0 C 4.863281 0 4.929688 -0.109375 4.929688 -0.199219 L 4.929688 -0.878906 C 4.929688 -0.964844 4.863281 -1.078125 4.730469 -1.078125 L 1.855469 -1.078125 L 1.855469 -6.796875 C 1.855469 -6.929688 1.742188 -6.996094 1.65625 -6.996094 L 0.976562 -6.996094 C 0.886719 -6.996094 0.777344 -6.929688 0.777344 -6.796875 Z M 0.777344 -0.199219 "/></g></g><g style="fill:rgb(0%,0%,0%);fill-opacity:1;"><g transform="translate(176.434858, 272.432148)"><path style="stroke:none;" d="M 0.644531 -6.996094 C 0.511719 -6.996094 0.445312 -6.886719 0.445312 -6.796875 L 0.445312 -6.121094 C 0.445312 -6.03125 0.511719 -5.917969 0.644531 -5.917969 L 2.289062 -5.917969 L 2.289062 -0.199219 C 2.289062 -0.0664062 2.398438 0 2.488281 0 L 3.164062 0 C 3.253906 0 3.363281 -0.0664062 3.363281 -0.199219 L 3.363281 -5.917969 L 5.007812 -5.917969 C 5.140625 -5.917969 5.207031 -6.03125 5.207031 -6.121094 L 5.207031 -6.796875 C 5.207031 -6.886719 5.140625 -6.996094 5.007812 -6.996094 Z M 0.644531 -6.996094 "/></g></g><g style="fill:rgb(0%,0%,0%);fill-opacity:1;"><g transform="translate(183.417206, 272.432148)"><path style="stroke:none;" d="M 1.855469 -6.796875 C 1.855469 -6.917969 1.777344 -6.996094 1.65625 -6.996094 L 0.976562 -6.996094 C 0.855469 -6.996094 0.777344 -6.917969 0.777344 -6.796875 L 0.777344 -0.199219 C 0.777344 -0.078125 0.855469 0 0.976562 0 L 1.65625 0 C 1.777344 0 1.855469 -0.078125 1.855469 -0.199219 Z M 1.855469 -6.796875 "/></g></g><g style="fill:rgb(0%,0%,0%);fill-opacity:1;"><g transform="translate(187.38053, 272.432148)"><path style="stroke:none;" d="M 3.875 0 C 3.953125 0 4.042969 -0.0546875 4.074219 -0.15625 L 6.121094 -6.796875 C 6.121094 -6.929688 6.007812 -6.996094 5.917969 -6.996094 L 5.21875 -6.996094 C 5.132812 -6.996094 5.042969 -6.917969 4.996094 -6.796875 L 3.253906 -1.167969 L 1.511719 -6.796875 C 1.464844 -6.917969 1.378906 -6.996094 1.289062 -6.996094 L 0.589844 -6.996094 C 0.5 -6.996094 0.390625 -6.929688 0.390625 -6.796875 L 2.433594 -0.15625 C 2.464844 -0.0546875 2.554688 0 2.632812 0 Z M 3.875 0 "/></g></g><g style="fill:rgb(0%,0%,0%);fill-opacity:1;"><g transform="translate(195.217537, 272.432148)"><path style="stroke:none;" d="M 1.855469 -1.078125 L 1.855469 -2.898438 L 4.210938 -2.898438 C 4.34375 -2.898438 4.410156 -3.007812 4.410156 -3.097656 L 4.410156 -3.777344 C 4.410156 -3.863281 4.34375 -3.976562 4.210938 -3.976562 L 1.855469 -3.976562 L 1.855469 -5.917969 L 4.730469 -5.917969 C 4.863281 -5.917969 4.929688 -6.03125 4.929688 -6.121094 L 4.929688 -6.796875 C 4.929688 -6.886719 4.863281 -6.996094 4.730469 -6.996094 L 0.976562 -6.996094 C 0.84375 -6.996094 0.777344 -6.886719 0.777344 -6.796875 L 0.777344 -0.199219 C 0.777344 -0.109375 0.84375 0 0.976562 0 L 4.730469 0 C 4.863281 0 4.929688 -0.109375 4.929688 -0.199219 L 4.929688 -0.878906 C 4.929688 -0.964844 4.863281 -1.078125 4.730469 -1.078125 Z M 1.855469 -1.078125 "/></g></g><g style="fill:rgb(0%,0%,0%);fill-opacity:1;"><g transform="translate(202.255393, 272.432148)"><path style="stroke:none;" d="M 4.140625 -0.167969 C 4.199219 -0.0429688 4.308594 0 4.398438 0 L 5.0625 0 C 5.152344 0 5.265625 -0.0664062 5.265625 -0.199219 L 4.421875 -2.066406 C 5.496094 -2.675781 5.507812 -3.910156 5.507812 -4.109375 L 5.507812 -4.632812 C 5.507812 -4.929688 5.464844 -6.996094 2.933594 -6.996094 L 0.976562 -6.996094 C 0.886719 -6.996094 0.777344 -6.929688 0.777344 -6.796875 L 0.777344 -0.199219 C 0.777344 -0.0664062 0.886719 0 0.976562 0 L 1.65625 0 C 1.742188 0 1.855469 -0.0664062 1.855469 -0.199219 L 1.855469 -1.734375 L 2.933594 -1.734375 C 3.109375 -1.734375 3.277344 -1.734375 3.433594 -1.753906 Z M 2.910156 -5.917969 C 3.355469 -5.917969 4.429688 -5.851562 4.429688 -4.476562 L 4.429688 -4.277344 C 4.429688 -2.886719 3.355469 -2.808594 2.910156 -2.808594 L 1.855469 -2.808594 L 1.855469 -5.917969 Z M 2.910156 -5.917969 "/></g></g><g style="fill:rgb(0%,0%,0%);fill-opacity:1;"><g transform="translate(209.53742, 272.432148)"><path style="stroke:none;" d="M 0.84375 -0.398438 C 1.742188 0.0429688 2.988281 0.0664062 2.988281 0.0664062 C 5.386719 0.0664062 5.574219 -1.265625 5.574219 -1.855469 C 5.574219 -4.363281 1.6875 -3.699219 1.6875 -5.175781 C 1.6875 -5.875 2.230469 -6.03125 3.132812 -6.03125 C 3.554688 -6.03125 3.898438 -5.984375 4.230469 -5.917969 C 4.277344 -5.910156 4.398438 -5.886719 4.429688 -5.886719 C 4.507812 -5.886719 4.542969 -5.917969 4.574219 -5.976562 L 4.785156 -6.484375 C 4.796875 -6.519531 4.820312 -6.574219 4.820312 -6.621094 C 4.820312 -6.675781 4.808594 -6.730469 4.730469 -6.761719 C 4.1875 -6.996094 3.753906 -7.0625 2.976562 -7.0625 C 1.6875 -7.0625 0.609375 -6.507812 0.609375 -5.140625 C 0.609375 -2.789062 4.507812 -3.410156 4.507812 -1.84375 C 4.507812 -1.386719 4.398438 -0.964844 3.042969 -0.964844 C 2.542969 -0.964844 1.875 -1.03125 1.277344 -1.308594 C 1.234375 -1.332031 1.199219 -1.34375 1.167969 -1.34375 C 1.089844 -1.34375 1.054688 -1.300781 1.023438 -1.242188 L 0.777344 -0.6875 C 0.753906 -0.632812 0.742188 -0.589844 0.742188 -0.554688 C 0.742188 -0.5 0.765625 -0.445312 0.84375 -0.398438 Z M 0.84375 -0.398438 "/></g></g><g style="fill:rgb(0%,0%,0%);fill-opacity:1;"><g transform="translate(216.99705, 272.432148)"><path style="stroke:none;" d="M 1.855469 -1.078125 L 1.855469 -2.898438 L 4.210938 -2.898438 C 4.34375 -2.898438 4.410156 -3.007812 4.410156 -3.097656 L 4.410156 -3.777344 C 4.410156 -3.863281 4.34375 -3.976562 4.210938 -3.976562 L 1.855469 -3.976562 L 1.855469 -5.917969 L 4.730469 -5.917969 C 4.863281 -5.917969 4.929688 -6.03125 4.929688 -6.121094 L 4.929688 -6.796875 C 4.929688 -6.886719 4.863281 -6.996094 4.730469 -6.996094 L 0.976562 -6.996094 C 0.84375 -6.996094 0.777344 -6.886719 0.777344 -6.796875 L 0.777344 -0.199219 C 0.777344 -0.109375 0.84375 0 0.976562 0 L 4.730469 0 C 4.863281 0 4.929688 -0.109375 4.929688 -0.199219 L 4.929688 -0.878906 C 4.929688 -0.964844 4.863281 -1.078125 4.730469 -1.078125 Z M 1.855469 -1.078125 "/></g></g></g></svg>